<svg width="54" height="54" viewBox="0 0 54 54" fill="none" xmlns="http://www.w3.org/2000/svg">
    <path fill-rule="evenodd" clip-rule="evenodd" d="M27.2322 40.3912C29.1817 39.4551 42.75 32.5003 42.75 20.25C42.75 11.5515 35.6985 4.5 27 4.5C18.3015 4.5 11.25 11.5515 11.25 20.25C11.25 32.5003 24.8183 39.4551 26.7678 40.3912C26.9202 40.4643 27.0798 40.4643 27.2322 40.3912ZM27 27C30.7279 27 33.75 23.9779 33.75 20.25C33.75 16.5221 30.7279 13.5 27 13.5C23.2721 13.5 20.25 16.5221 20.25 20.25C20.25 23.9779 23.2721 27 27 27Z" fill="#F77843"/>
    <path fill-rule="evenodd" clip-rule="evenodd" d="M39.2105 36.0639C39.7965 35.2745 40.9115 35.1095 41.701 35.6956C43.3202 36.8975 44.5302 38.5285 44.5302 40.5C44.5302 42.4714 43.3202 44.1025 41.701 45.3044C40.0662 46.518 37.8345 47.4473 35.3026 48.0738C32.7527 48.7047 29.8917 49.0302 27 49.0302C24.1083 49.0302 21.2473 48.7047 18.6974 48.0738C16.1655 47.4473 13.9338 46.518 12.299 45.3044C10.6798 44.1025 9.46979 42.4714 9.46979 40.5C9.46979 38.5285 10.6798 36.8975 12.299 35.6956C13.0885 35.1095 14.2035 35.2745 14.7895 36.0639C15.3756 36.8534 15.2106 37.9684 14.4212 38.5544C13.2757 39.4047 13.0302 40.1017 13.0302 40.5C13.0302 40.8983 13.2757 41.5953 14.4212 42.4456C15.5511 43.2843 17.2959 44.0592 19.5526 44.6176C21.7913 45.1715 24.3623 45.4698 27 45.4698C29.6377 45.4698 32.2087 45.1715 34.4474 44.6176C36.7041 44.0592 38.4489 43.2843 39.5788 42.4456C40.7243 41.5953 40.9698 40.8983 40.9698 40.5C40.9698 40.1017 40.7243 39.4047 39.5788 38.5544C38.7894 37.9684 38.6245 36.8534 39.2105 36.0639Z" fill="#F77843"/>
</svg>
